<svg
  width="128"
  height="128"
  viewBox="0 0 128 128"
  fill="none"
  xmlns="http://www.w3.org/2000/svg"
>
  <defs>
    <linearGradient id="bgGradient" x1="20" y1="18" x2="108" y2="110" gradientUnits="userSpaceOnUse">
      <stop offset="0" stop-color="#10C8F4" />
      <stop offset="1" stop-color="#0C2F7A" />
    </linearGradient>
    <linearGradient id="glassGradient" x1="47" y1="38" x2="66" y2="61" gradientUnits="userSpaceOnUse">
      <stop offset="0" stop-color="#FFFFFF" />
      <stop offset="1" stop-color="#D9E2F2" />
    </linearGradient>
    <filter id="softShadow" x="24" y="25" width="80" height="82" filterUnits="userSpaceOnUse" color-interpolation-filters="sRGB">
      <feFlood flood-opacity="0" result="BackgroundImageFix" />
      <feColorMatrix
        in="SourceAlpha"
        type="matrix"
        values="0 0 0 0 0 0 0 0 0 0 0 0 0 0 0 0 0 0 127 0"
        result="hardAlpha"
      />
      <feOffset dy="3" />
      <feGaussianBlur stdDeviation="3" />
      <feColorMatrix
        type="matrix"
        values="0 0 0 0 0.0196078 0 0 0 0 0.0823529 0 0 0 0 0.172549 0 0 0 0.22 0"
      />
      <feBlend mode="normal" in2="BackgroundImageFix" result="effect1_dropShadow_1_1" />
      <feBlend mode="normal" in="SourceGraphic" in2="effect1_dropShadow_1_1" result="shape" />
    </filter>
  </defs>

  <circle cx="64" cy="64" r="45" fill="url(#bgGradient)" />

  <g filter="url(#softShadow)">
    <path
      d="M72.7234 73.0215C66.6505 79.0944 56.805 80.0978 49.5884 75.4068C41.4068 70.0877 39.0618 59.1498 44.3809 50.9682C49.7001 42.7866 60.6379 40.4416 68.8195 45.7607C76.0361 50.4517 79.1885 59.8336 76.1448 67.9102L95.0923 86.8577C96.8578 88.6232 96.8578 91.4857 95.0923 93.2511C93.3269 95.0166 90.4644 95.0166 88.6989 93.2511L72.7234 77.2756V73.0215Z"
      fill="#12304D"
    />
    <circle cx="57.5" cy="57.5" r="18.5" fill="#0C223A" />
    <circle cx="57.5" cy="57.5" r="12.5" fill="url(#glassGradient)" />
    <circle cx="57.5" cy="57.5" r="11" stroke="#173A56" stroke-opacity="0.55" stroke-width="1.5" />
    <circle cx="51.5" cy="51.5" r="4.5" fill="#FFF6F6" />
  </g>
</svg>
